<?xml version="1.0" encoding="UTF-8" standalone="no"?>
<svg
   viewBox="0 0 257.24518 107.62"
   version="1.1"
   id="svg39"
   sodipodi:docname="wasm2c.svg"
   width="257.24518"
   height="107.62"
   inkscape:version="1.1.2 (0a00cf5339, 2022-02-04)"
   xmlns:inkscape="http://www.inkscape.org/namespaces/inkscape"
   xmlns:sodipodi="http://sodipodi.sourceforge.net/DTD/sodipodi-0.dtd"
   xmlns:xlink="http://www.w3.org/1999/xlink"
   xmlns="http://www.w3.org/2000/svg"
   xmlns:svg="http://www.w3.org/2000/svg"
   xmlns:rdf="http://www.w3.org/1999/02/22-rdf-syntax-ns#"
   xmlns:cc="http://creativecommons.org/ns#"
   xmlns:dc="http://purl.org/dc/elements/1.1/">
  <sodipodi:namedview
     id="namedview41"
     pagecolor="#ffffff"
     bordercolor="#666666"
     borderopacity="1.0"
     inkscape:pageshadow="2"
     inkscape:pageopacity="0.0"
     inkscape:pagecheckerboard="0"
     showgrid="false"
     inkscape:snap-bbox="true"
     fit-margin-top="0"
     fit-margin-left="0"
     fit-margin-right="0"
     fit-margin-bottom="0"
     inkscape:zoom="3.094992"
     inkscape:cx="164.13613"
     inkscape:cy="41.841789"
     inkscape:window-width="1920"
     inkscape:window-height="1031"
     inkscape:window-x="0"
     inkscape:window-y="25"
     inkscape:window-maximized="1"
     inkscape:current-layer="Layer_2" />
  <defs
     id="defs4">
    <linearGradient
       inkscape:collect="always"
       id="WA-Gradient">
      <stop
         style="stop-color:#654ff0;stop-opacity:1"
         offset="0"
         id="stop20620" />
      <stop
         style="stop-color:#a8b9cc;stop-opacity:1"
         offset="1"
         id="stop20622" />
    </linearGradient>
    <marker
       style="overflow:visible"
       id="Arrow2Lend"
       refX="0"
       refY="0"
       orient="auto"
       inkscape:stockid="Arrow2Lend"
       inkscape:isstock="true">
      <path
         transform="matrix(-1.1,0,0,-1.1,-1.1,0)"
         d="M 8.7185878,4.0337352 -2.2072895,0.01601326 8.7185884,-4.0017078 c -1.7454984,2.3720609 -1.7354408,5.6174519 -6e-7,8.035443 z"
         style="fill:context-stroke;fill-rule:evenodd;stroke:context-stroke;stroke-width:0.625;stroke-linejoin:round"
         id="path1305" />
    </marker>
    <style
       id="style2">
      .cls-1 {
        fill: #393939;
      }

      .cls-2 {
        fill: #654ff0;
      }
    </style>
    <linearGradient
       inkscape:collect="always"
       xlink:href="#WA-Gradient"
       id="linearGradient20626"
       x1="131.35158"
       y1="70.397659"
       x2="158.35118"
       y2="70.397659"
       gradientUnits="userSpaceOnUse"
       gradientTransform="translate(10,10)" />
    <linearGradient
       inkscape:collect="always"
       xlink:href="#WA-Gradient"
       id="linearGradient842"
       gradientUnits="userSpaceOnUse"
       x1="131.35158"
       y1="66.632339"
       x2="159.16266"
       y2="66.632339"
       gradientTransform="translate(10,10)" />
  </defs>
  <title
     id="title6">web-assembly-logo</title>
  <g
     id="Layer_2"
     data-name="Layer 2"
     transform="translate(-22.722414,-22.405526)">
    <g
       id="icon"
       transform="translate(-74.707586,22.405526)">
      <path
         class="cls-2"
         d="m 163.76,0 c 0,0.19 0,0.38 0,0.58 a 12.34,12.34 0 0 1 -24.68,0 c 0,-0.2 0,-0.39 0,-0.58 H 97.64 V 107.62 H 205.26 V 0 Z M 149,96.1 143.76,70.17 h -0.09 L 138,96.1 h -7.22 L 122.6,58 h 7.13 l 4.88,25.93 h 0.09 L 140.58,58 h 6.67 l 5.28,26.25 h 0.09 L 158.19,58 h 7 l -9.09,38.1 z m 39.26,0 -2.43,-8.48 H 173 l -1.87,8.48 H 164 L 173.22,58 h 11.25 l 11.21,38.1 z"
         transform="translate(-0.21)"
         id="path32" />
      <polygon
         class="cls-2"
         points="183.87,81.37 180.3,67.39 177.3,67.39 174.19,81.37 "
         id="polygon34" />
    </g>
    <path
       d="m 252.52077,64.153727 c 0,0 -1.52212,-14.19142 -15.60285,-14.585501 -14.08075,-0.394082 -21.31229,10.643564 -21.31229,26.411592 0,15.768027 7.99204,28.383132 21.69239,28.383132 13.70063,0 15.22275,-15.76804 15.22275,-15.76804 l 26.25898,1.576608 c 0,0 1.54614,14.241172 -9.44231,25.106382 -10.98874,10.86435 -24.47639,12.63939 -33.89551,12.56561 -9.41912,-0.0752 -22.4786,0.14757 -35.10767,-12.78724 -12.62906,-12.93484 -14.7722,-25.500471 -14.7722,-37.843899 0,-12.343986 2.39496,-28.696148 17.41115,-41.096312 10.20533,-8.426085 20.55068,-11.530668 30.8977,-11.530668 43.19557,0 46.09668,39.839723 46.09668,39.839723 z"
       id="path3"
       inkscape:connector-curvature="0"
       style="fill:#a8b9cc;stroke-width:1" />
    <g
       aria-label="→"
       id="text12759"
       style="font-size:45.3611px;line-height:1.25;font-family:'ACaslon Regular';-inkscape-font-specification:'ACaslon Regular, ';letter-spacing:0px;fill:url(#linearGradient20626);fill-opacity:1;stroke:none;stroke-width:0.25">
      <path
         d="m 174.55289,77.518297 v 1.993407 l -8.70455,8.704547 -2.65787,-2.657877 5.16071,-5.160711 h -26.9996 v -3.765325 h 26.9996 l -5.16071,-5.160711 2.65787,-2.657877 z"
         style="font-family:Roboto;-inkscape-font-specification:Roboto;fill:url(#linearGradient842);fill-opacity:1;stroke:none"
         id="path18697" />
    </g>
  </g>
  <metadata
     id="metadata858">
    <rdf:RDF>
      <cc:Work
         rdf:about="">
        <dc:title>web-assembly-logo</dc:title>
      </cc:Work>
    </rdf:RDF>
  </metadata>
</svg>
